<mxfile host="Electron" agent="Mozilla/5.0 (X11; Linux x86_64) AppleWebKit/537.36 (KHTML, like Gecko) draw.io/24.7.8 Chrome/128.0.6613.36 Electron/32.0.1 Safari/537.36" version="24.7.8">
  <diagram id="ZU8oZovs3SOM6N7MPJM6" name="Page-1">
    <mxGraphModel dx="397" dy="731" grid="1" gridSize="10" guides="1" tooltips="1" connect="1" arrows="1" fold="1" page="1" pageScale="1" pageWidth="850" pageHeight="1100" math="0" shadow="0">
      <root>
        <mxCell id="0" />
        <mxCell id="1" parent="0" />
        <mxCell id="laMTZQYiR48xp2a-LF_z-140" style="edgeStyle=orthogonalEdgeStyle;rounded=0;orthogonalLoop=1;jettySize=auto;html=1;exitX=1;exitY=0.5;exitDx=0;exitDy=0;entryX=0;entryY=0.5;entryDx=0;entryDy=0;strokeColor=none;enumerate=0;comic=0;" edge="1" parent="1" source="laMTZQYiR48xp2a-LF_z-135">
          <mxGeometry relative="1" as="geometry">
            <mxPoint x="1620" y="960" as="targetPoint" />
          </mxGeometry>
        </mxCell>
        <mxCell id="laMTZQYiR48xp2a-LF_z-145" value="" style="edgeStyle=orthogonalEdgeStyle;rounded=0;orthogonalLoop=1;jettySize=auto;html=1;entryX=0;entryY=0.5;entryDx=0;entryDy=0;enumerate=0;comic=0;endArrow=none;endFill=0;" edge="1" parent="1" source="laMTZQYiR48xp2a-LF_z-135" target="laMTZQYiR48xp2a-LF_z-144">
          <mxGeometry relative="1" as="geometry" />
        </mxCell>
        <mxCell id="laMTZQYiR48xp2a-LF_z-201" value="0..n" style="edgeLabel;html=1;align=center;verticalAlign=middle;resizable=0;points=[];enumerate=0;comic=0;" vertex="1" connectable="0" parent="laMTZQYiR48xp2a-LF_z-145">
          <mxGeometry x="-0.8381" y="-1" relative="1" as="geometry">
            <mxPoint x="13" y="-1" as="offset" />
          </mxGeometry>
        </mxCell>
        <mxCell id="laMTZQYiR48xp2a-LF_z-182" value="" style="edgeStyle=orthogonalEdgeStyle;rounded=0;orthogonalLoop=1;jettySize=auto;html=1;enumerate=0;comic=0;endArrow=none;endFill=0;" edge="1" parent="1" source="laMTZQYiR48xp2a-LF_z-135" target="laMTZQYiR48xp2a-LF_z-181">
          <mxGeometry relative="1" as="geometry" />
        </mxCell>
        <mxCell id="laMTZQYiR48xp2a-LF_z-193" value="0..n" style="edgeLabel;html=1;align=center;verticalAlign=middle;resizable=0;points=[];enumerate=0;comic=0;" vertex="1" connectable="0" parent="laMTZQYiR48xp2a-LF_z-182">
          <mxGeometry x="-0.7037" y="1" relative="1" as="geometry">
            <mxPoint as="offset" />
          </mxGeometry>
        </mxCell>
        <mxCell id="laMTZQYiR48xp2a-LF_z-196" value="" style="edgeStyle=orthogonalEdgeStyle;rounded=0;orthogonalLoop=1;jettySize=auto;html=1;enumerate=0;comic=0;endArrow=none;endFill=0;" edge="1" parent="1" source="laMTZQYiR48xp2a-LF_z-135" target="laMTZQYiR48xp2a-LF_z-195">
          <mxGeometry relative="1" as="geometry">
            <Array as="points">
              <mxPoint x="1530" y="1010" />
              <mxPoint x="1530" y="1010" />
            </Array>
          </mxGeometry>
        </mxCell>
        <mxCell id="laMTZQYiR48xp2a-LF_z-199" value="1" style="edgeLabel;html=1;align=center;verticalAlign=middle;resizable=0;points=[];enumerate=0;comic=0;" vertex="1" connectable="0" parent="laMTZQYiR48xp2a-LF_z-196">
          <mxGeometry x="-0.6286" y="1" relative="1" as="geometry">
            <mxPoint as="offset" />
          </mxGeometry>
        </mxCell>
        <mxCell id="laMTZQYiR48xp2a-LF_z-239" value="" style="edgeStyle=orthogonalEdgeStyle;rounded=0;orthogonalLoop=1;jettySize=auto;html=1;enumerate=0;comic=0;endArrow=none;endFill=0;" edge="1" parent="1" source="laMTZQYiR48xp2a-LF_z-135" target="laMTZQYiR48xp2a-LF_z-231">
          <mxGeometry relative="1" as="geometry" />
        </mxCell>
        <mxCell id="laMTZQYiR48xp2a-LF_z-260" value="0..n" style="edgeLabel;html=1;align=center;verticalAlign=middle;resizable=0;points=[];enumerate=0;comic=0;" vertex="1" connectable="0" parent="laMTZQYiR48xp2a-LF_z-239">
          <mxGeometry x="-0.7844" y="-1" relative="1" as="geometry">
            <mxPoint as="offset" />
          </mxGeometry>
        </mxCell>
        <mxCell id="laMTZQYiR48xp2a-LF_z-251" style="edgeStyle=orthogonalEdgeStyle;rounded=0;orthogonalLoop=1;jettySize=auto;html=1;entryX=0;entryY=0.5;entryDx=0;entryDy=0;enumerate=0;comic=0;endArrow=none;endFill=0;" edge="1" parent="1" source="laMTZQYiR48xp2a-LF_z-135" target="laMTZQYiR48xp2a-LF_z-250">
          <mxGeometry relative="1" as="geometry" />
        </mxCell>
        <mxCell id="laMTZQYiR48xp2a-LF_z-252" style="edgeStyle=orthogonalEdgeStyle;rounded=0;orthogonalLoop=1;jettySize=auto;html=1;entryX=0;entryY=0.5;entryDx=0;entryDy=0;enumerate=0;comic=0;endArrow=none;endFill=0;" edge="1" parent="1" source="laMTZQYiR48xp2a-LF_z-135" target="laMTZQYiR48xp2a-LF_z-241">
          <mxGeometry relative="1" as="geometry" />
        </mxCell>
        <mxCell id="laMTZQYiR48xp2a-LF_z-253" style="edgeStyle=orthogonalEdgeStyle;rounded=0;orthogonalLoop=1;jettySize=auto;html=1;entryX=0;entryY=0.5;entryDx=0;entryDy=0;enumerate=0;comic=0;endArrow=none;endFill=0;" edge="1" parent="1" source="laMTZQYiR48xp2a-LF_z-135" target="laMTZQYiR48xp2a-LF_z-240">
          <mxGeometry relative="1" as="geometry" />
        </mxCell>
        <mxCell id="laMTZQYiR48xp2a-LF_z-254" style="edgeStyle=orthogonalEdgeStyle;rounded=0;orthogonalLoop=1;jettySize=auto;html=1;entryX=0;entryY=0.5;entryDx=0;entryDy=0;enumerate=0;comic=0;endArrow=none;endFill=0;" edge="1" parent="1" source="laMTZQYiR48xp2a-LF_z-135" target="laMTZQYiR48xp2a-LF_z-247">
          <mxGeometry relative="1" as="geometry" />
        </mxCell>
        <mxCell id="laMTZQYiR48xp2a-LF_z-256" style="edgeStyle=orthogonalEdgeStyle;rounded=0;orthogonalLoop=1;jettySize=auto;html=1;entryX=0;entryY=0.5;entryDx=0;entryDy=0;enumerate=0;comic=0;endArrow=none;endFill=0;" edge="1" parent="1" source="laMTZQYiR48xp2a-LF_z-135" target="laMTZQYiR48xp2a-LF_z-248">
          <mxGeometry relative="1" as="geometry" />
        </mxCell>
        <mxCell id="laMTZQYiR48xp2a-LF_z-257" style="edgeStyle=orthogonalEdgeStyle;rounded=0;orthogonalLoop=1;jettySize=auto;html=1;entryX=0;entryY=0.5;entryDx=0;entryDy=0;enumerate=0;comic=0;endArrow=none;endFill=0;" edge="1" parent="1" source="laMTZQYiR48xp2a-LF_z-135" target="laMTZQYiR48xp2a-LF_z-249">
          <mxGeometry relative="1" as="geometry" />
        </mxCell>
        <mxCell id="laMTZQYiR48xp2a-LF_z-273" style="edgeStyle=orthogonalEdgeStyle;rounded=0;orthogonalLoop=1;jettySize=auto;html=1;entryX=0.5;entryY=1;entryDx=0;entryDy=0;enumerate=0;comic=0;endArrow=none;endFill=0;" edge="1" parent="1" source="laMTZQYiR48xp2a-LF_z-135" target="laMTZQYiR48xp2a-LF_z-272">
          <mxGeometry relative="1" as="geometry">
            <mxPoint x="1530" y="870" as="targetPoint" />
          </mxGeometry>
        </mxCell>
        <mxCell id="laMTZQYiR48xp2a-LF_z-304" value="1" style="edgeLabel;html=1;align=center;verticalAlign=middle;resizable=0;points=[];enumerate=0;comic=0;" vertex="1" connectable="0" parent="laMTZQYiR48xp2a-LF_z-273">
          <mxGeometry x="-0.7438" y="1" relative="1" as="geometry">
            <mxPoint as="offset" />
          </mxGeometry>
        </mxCell>
        <mxCell id="laMTZQYiR48xp2a-LF_z-300" style="edgeStyle=orthogonalEdgeStyle;rounded=0;orthogonalLoop=1;jettySize=auto;html=1;entryX=1;entryY=0.5;entryDx=0;entryDy=0;enumerate=0;comic=0;endArrow=none;endFill=0;" edge="1" parent="1" source="laMTZQYiR48xp2a-LF_z-135" target="laMTZQYiR48xp2a-LF_z-299">
          <mxGeometry relative="1" as="geometry">
            <Array as="points">
              <mxPoint x="1510" y="1050" />
              <mxPoint x="1435" y="1050" />
              <mxPoint x="1435" y="1100" />
            </Array>
          </mxGeometry>
        </mxCell>
        <mxCell id="laMTZQYiR48xp2a-LF_z-309" value="1" style="edgeLabel;html=1;align=center;verticalAlign=middle;resizable=0;points=[];enumerate=0;comic=0;" vertex="1" connectable="0" parent="laMTZQYiR48xp2a-LF_z-300">
          <mxGeometry x="-0.8487" relative="1" as="geometry">
            <mxPoint x="-1" as="offset" />
          </mxGeometry>
        </mxCell>
        <mxCell id="laMTZQYiR48xp2a-LF_z-135" value="users" style="rounded=1;arcSize=10;whiteSpace=wrap;html=1;align=center;enumerate=0;comic=0;" vertex="1" parent="1">
          <mxGeometry x="1460" y="930" width="100" height="60" as="geometry" />
        </mxCell>
        <mxCell id="laMTZQYiR48xp2a-LF_z-167" value="" style="edgeStyle=orthogonalEdgeStyle;rounded=0;orthogonalLoop=1;jettySize=auto;html=1;enumerate=0;comic=0;endArrow=none;endFill=0;" edge="1" parent="1" source="laMTZQYiR48xp2a-LF_z-144" target="laMTZQYiR48xp2a-LF_z-166">
          <mxGeometry relative="1" as="geometry" />
        </mxCell>
        <mxCell id="laMTZQYiR48xp2a-LF_z-204" value="0..n" style="edgeLabel;html=1;align=center;verticalAlign=middle;resizable=0;points=[];enumerate=0;comic=0;" vertex="1" connectable="0" parent="laMTZQYiR48xp2a-LF_z-167">
          <mxGeometry x="0.3628" relative="1" as="geometry">
            <mxPoint as="offset" />
          </mxGeometry>
        </mxCell>
        <mxCell id="laMTZQYiR48xp2a-LF_z-175" value="" style="edgeStyle=orthogonalEdgeStyle;rounded=0;orthogonalLoop=1;jettySize=auto;html=1;enumerate=0;comic=0;endArrow=none;endFill=0;" edge="1" parent="1" source="laMTZQYiR48xp2a-LF_z-144" target="laMTZQYiR48xp2a-LF_z-174">
          <mxGeometry relative="1" as="geometry" />
        </mxCell>
        <mxCell id="laMTZQYiR48xp2a-LF_z-177" style="edgeStyle=orthogonalEdgeStyle;rounded=0;orthogonalLoop=1;jettySize=auto;html=1;entryX=0;entryY=0.5;entryDx=0;entryDy=0;enumerate=0;comic=0;endArrow=none;endFill=0;" edge="1" parent="1" source="laMTZQYiR48xp2a-LF_z-144" target="laMTZQYiR48xp2a-LF_z-176">
          <mxGeometry relative="1" as="geometry" />
        </mxCell>
        <mxCell id="laMTZQYiR48xp2a-LF_z-144" value="saves" style="rhombus;whiteSpace=wrap;html=1;rounded=1;arcSize=10;enumerate=0;comic=0;" vertex="1" parent="1">
          <mxGeometry x="1650" y="900" width="80" height="80" as="geometry" />
        </mxCell>
        <mxCell id="laMTZQYiR48xp2a-LF_z-169" value="" style="edgeStyle=orthogonalEdgeStyle;rounded=0;orthogonalLoop=1;jettySize=auto;html=1;enumerate=0;comic=0;endArrow=none;endFill=0;" edge="1" parent="1" source="laMTZQYiR48xp2a-LF_z-166" target="laMTZQYiR48xp2a-LF_z-168">
          <mxGeometry relative="1" as="geometry" />
        </mxCell>
        <mxCell id="laMTZQYiR48xp2a-LF_z-173" style="edgeStyle=orthogonalEdgeStyle;rounded=0;orthogonalLoop=1;jettySize=auto;html=1;entryX=0.5;entryY=1;entryDx=0;entryDy=0;enumerate=0;comic=0;endArrow=none;endFill=0;" edge="1" parent="1" source="laMTZQYiR48xp2a-LF_z-166" target="laMTZQYiR48xp2a-LF_z-170">
          <mxGeometry relative="1" as="geometry" />
        </mxCell>
        <mxCell id="laMTZQYiR48xp2a-LF_z-220" value="" style="edgeStyle=orthogonalEdgeStyle;rounded=0;orthogonalLoop=1;jettySize=auto;html=1;enumerate=0;comic=0;endArrow=none;endFill=0;" edge="1" parent="1" source="laMTZQYiR48xp2a-LF_z-166" target="laMTZQYiR48xp2a-LF_z-219">
          <mxGeometry relative="1" as="geometry" />
        </mxCell>
        <mxCell id="laMTZQYiR48xp2a-LF_z-222" value="0..n" style="edgeLabel;html=1;align=center;verticalAlign=middle;resizable=0;points=[];enumerate=0;comic=0;" vertex="1" connectable="0" parent="laMTZQYiR48xp2a-LF_z-220">
          <mxGeometry x="-0.5958" y="-1" relative="1" as="geometry">
            <mxPoint x="-36" y="-1" as="offset" />
          </mxGeometry>
        </mxCell>
        <mxCell id="laMTZQYiR48xp2a-LF_z-166" value="artists" style="whiteSpace=wrap;html=1;rounded=1;arcSize=10;enumerate=0;comic=0;" vertex="1" parent="1">
          <mxGeometry x="1630" y="477.99999999999994" width="120" height="60" as="geometry" />
        </mxCell>
        <mxCell id="laMTZQYiR48xp2a-LF_z-168" value="id" style="ellipse;whiteSpace=wrap;html=1;rounded=1;arcSize=10;fontStyle=4;enumerate=0;comic=0;" vertex="1" parent="1">
          <mxGeometry x="1630" y="390" width="40" height="30" as="geometry" />
        </mxCell>
        <mxCell id="laMTZQYiR48xp2a-LF_z-170" value="musixmatch_id" style="ellipse;whiteSpace=wrap;html=1;rounded=1;arcSize=10;enumerate=0;comic=0;" vertex="1" parent="1">
          <mxGeometry x="1680" y="390" width="90" height="30" as="geometry" />
        </mxCell>
        <mxCell id="laMTZQYiR48xp2a-LF_z-174" value="saved_at" style="ellipse;whiteSpace=wrap;html=1;rounded=1;arcSize=10;enumerate=0;comic=0;" vertex="1" parent="1">
          <mxGeometry x="1780" y="920" width="60" height="20" as="geometry" />
        </mxCell>
        <mxCell id="laMTZQYiR48xp2a-LF_z-176" value="is_favorite" style="ellipse;whiteSpace=wrap;html=1;rounded=1;arcSize=10;enumerate=0;comic=0;" vertex="1" parent="1">
          <mxGeometry x="1780" y="950" width="60" height="20" as="geometry" />
        </mxCell>
        <mxCell id="laMTZQYiR48xp2a-LF_z-187" style="edgeStyle=orthogonalEdgeStyle;rounded=0;orthogonalLoop=1;jettySize=auto;html=1;entryX=1;entryY=0.5;entryDx=0;entryDy=0;enumerate=0;comic=0;endArrow=none;endFill=0;" edge="1" parent="1" source="laMTZQYiR48xp2a-LF_z-181" target="laMTZQYiR48xp2a-LF_z-185">
          <mxGeometry relative="1" as="geometry" />
        </mxCell>
        <mxCell id="laMTZQYiR48xp2a-LF_z-191" style="edgeStyle=orthogonalEdgeStyle;rounded=0;orthogonalLoop=1;jettySize=auto;html=1;entryX=0.25;entryY=1;entryDx=0;entryDy=0;exitX=0.5;exitY=1;exitDx=0;exitDy=0;enumerate=0;comic=0;endArrow=none;endFill=0;" edge="1" parent="1" source="laMTZQYiR48xp2a-LF_z-181" target="laMTZQYiR48xp2a-LF_z-135">
          <mxGeometry relative="1" as="geometry" />
        </mxCell>
        <mxCell id="laMTZQYiR48xp2a-LF_z-194" value="0..n" style="edgeLabel;html=1;align=center;verticalAlign=middle;resizable=0;points=[];enumerate=0;comic=0;" vertex="1" connectable="0" parent="laMTZQYiR48xp2a-LF_z-191">
          <mxGeometry x="0.8504" relative="1" as="geometry">
            <mxPoint as="offset" />
          </mxGeometry>
        </mxCell>
        <mxCell id="laMTZQYiR48xp2a-LF_z-192" style="edgeStyle=orthogonalEdgeStyle;rounded=0;orthogonalLoop=1;jettySize=auto;html=1;entryX=1;entryY=0.5;entryDx=0;entryDy=0;enumerate=0;comic=0;endArrow=none;endFill=0;" edge="1" parent="1" source="laMTZQYiR48xp2a-LF_z-181" target="laMTZQYiR48xp2a-LF_z-186">
          <mxGeometry relative="1" as="geometry" />
        </mxCell>
        <mxCell id="laMTZQYiR48xp2a-LF_z-181" value="friendships" style="rhombus;whiteSpace=wrap;html=1;rounded=1;arcSize=10;enumerate=0;comic=0;" vertex="1" parent="1">
          <mxGeometry x="1290" y="920" width="80" height="80" as="geometry" />
        </mxCell>
        <mxCell id="laMTZQYiR48xp2a-LF_z-185" value="created_at" style="ellipse;whiteSpace=wrap;html=1;rounded=1;arcSize=10;enumerate=0;comic=0;" vertex="1" parent="1">
          <mxGeometry x="1150" y="910" width="80" height="40" as="geometry" />
        </mxCell>
        <mxCell id="laMTZQYiR48xp2a-LF_z-186" value="status" style="ellipse;whiteSpace=wrap;html=1;rounded=1;arcSize=10;enumerate=0;comic=0;" vertex="1" parent="1">
          <mxGeometry x="1190" y="970" width="40" height="40" as="geometry" />
        </mxCell>
        <mxCell id="laMTZQYiR48xp2a-LF_z-198" value="" style="edgeStyle=orthogonalEdgeStyle;rounded=0;orthogonalLoop=1;jettySize=auto;html=1;enumerate=0;comic=0;endArrow=none;endFill=0;" edge="1" parent="1" source="laMTZQYiR48xp2a-LF_z-195" target="laMTZQYiR48xp2a-LF_z-197">
          <mxGeometry relative="1" as="geometry" />
        </mxCell>
        <mxCell id="laMTZQYiR48xp2a-LF_z-200" value="0..n" style="edgeLabel;html=1;align=center;verticalAlign=middle;resizable=0;points=[];enumerate=0;comic=0;" vertex="1" connectable="0" parent="laMTZQYiR48xp2a-LF_z-198">
          <mxGeometry x="0.492" y="1" relative="1" as="geometry">
            <mxPoint as="offset" />
          </mxGeometry>
        </mxCell>
        <mxCell id="laMTZQYiR48xp2a-LF_z-195" value="plays" style="rhombus;whiteSpace=wrap;html=1;rounded=1;arcSize=10;enumerate=0;comic=0;" vertex="1" parent="1">
          <mxGeometry x="1490" y="1060" width="80" height="80" as="geometry" />
        </mxCell>
        <mxCell id="laMTZQYiR48xp2a-LF_z-206" value="" style="edgeStyle=orthogonalEdgeStyle;rounded=0;orthogonalLoop=1;jettySize=auto;html=1;enumerate=0;comic=0;endArrow=none;endFill=0;" edge="1" parent="1" source="laMTZQYiR48xp2a-LF_z-197" target="laMTZQYiR48xp2a-LF_z-205">
          <mxGeometry relative="1" as="geometry" />
        </mxCell>
        <mxCell id="laMTZQYiR48xp2a-LF_z-211" value="0..n" style="edgeLabel;html=1;align=center;verticalAlign=middle;resizable=0;points=[];enumerate=0;comic=0;" vertex="1" connectable="0" parent="laMTZQYiR48xp2a-LF_z-206">
          <mxGeometry x="-0.6724" relative="1" as="geometry">
            <mxPoint as="offset" />
          </mxGeometry>
        </mxCell>
        <mxCell id="laMTZQYiR48xp2a-LF_z-215" value="" style="edgeStyle=orthogonalEdgeStyle;rounded=0;orthogonalLoop=1;jettySize=auto;html=1;enumerate=0;comic=0;endArrow=none;endFill=0;" edge="1" parent="1" source="laMTZQYiR48xp2a-LF_z-197" target="laMTZQYiR48xp2a-LF_z-214">
          <mxGeometry relative="1" as="geometry" />
        </mxCell>
        <mxCell id="laMTZQYiR48xp2a-LF_z-218" style="edgeStyle=orthogonalEdgeStyle;rounded=0;orthogonalLoop=1;jettySize=auto;html=1;entryX=1;entryY=0.5;entryDx=0;entryDy=0;enumerate=0;comic=0;endArrow=none;endFill=0;" edge="1" parent="1" source="laMTZQYiR48xp2a-LF_z-197" target="laMTZQYiR48xp2a-LF_z-217">
          <mxGeometry relative="1" as="geometry" />
        </mxCell>
        <mxCell id="laMTZQYiR48xp2a-LF_z-264" value="" style="edgeStyle=orthogonalEdgeStyle;rounded=0;orthogonalLoop=1;jettySize=auto;html=1;exitX=0.5;exitY=1;exitDx=0;exitDy=0;enumerate=0;comic=0;endArrow=none;endFill=0;" edge="1" parent="1" source="laMTZQYiR48xp2a-LF_z-197" target="laMTZQYiR48xp2a-LF_z-263">
          <mxGeometry relative="1" as="geometry">
            <mxPoint x="1530" y="1300" as="sourcePoint" />
          </mxGeometry>
        </mxCell>
        <mxCell id="laMTZQYiR48xp2a-LF_z-268" value="0..n" style="edgeLabel;html=1;align=center;verticalAlign=middle;resizable=0;points=[];enumerate=0;comic=0;" vertex="1" connectable="0" parent="laMTZQYiR48xp2a-LF_z-264">
          <mxGeometry x="-0.9081" y="-1" relative="1" as="geometry">
            <mxPoint as="offset" />
          </mxGeometry>
        </mxCell>
        <mxCell id="laMTZQYiR48xp2a-LF_z-197" value="Games" style="rounded=1;whiteSpace=wrap;html=1;arcSize=10;enumerate=0;comic=0;" vertex="1" parent="1">
          <mxGeometry x="1470" y="1230" width="120" height="60" as="geometry" />
        </mxCell>
        <mxCell id="laMTZQYiR48xp2a-LF_z-208" value="" style="edgeStyle=orthogonalEdgeStyle;rounded=0;orthogonalLoop=1;jettySize=auto;html=1;enumerate=0;comic=0;endArrow=none;endFill=0;" edge="1" parent="1" source="laMTZQYiR48xp2a-LF_z-205" target="laMTZQYiR48xp2a-LF_z-207">
          <mxGeometry relative="1" as="geometry" />
        </mxCell>
        <mxCell id="laMTZQYiR48xp2a-LF_z-213" value="1" style="edgeLabel;html=1;align=center;verticalAlign=middle;resizable=0;points=[];enumerate=0;comic=0;" vertex="1" connectable="0" parent="laMTZQYiR48xp2a-LF_z-208">
          <mxGeometry x="0.3714" y="-1" relative="1" as="geometry">
            <mxPoint as="offset" />
          </mxGeometry>
        </mxCell>
        <mxCell id="laMTZQYiR48xp2a-LF_z-205" value="has_song" style="rhombus;whiteSpace=wrap;html=1;rounded=1;arcSize=10;enumerate=0;comic=0;" vertex="1" parent="1">
          <mxGeometry x="1670" y="1220" width="80" height="80" as="geometry" />
        </mxCell>
        <mxCell id="laMTZQYiR48xp2a-LF_z-228" value="" style="edgeStyle=orthogonalEdgeStyle;rounded=0;orthogonalLoop=1;jettySize=auto;html=1;enumerate=0;comic=0;endArrow=none;endFill=0;" edge="1" parent="1" source="laMTZQYiR48xp2a-LF_z-207" target="laMTZQYiR48xp2a-LF_z-227">
          <mxGeometry relative="1" as="geometry" />
        </mxCell>
        <mxCell id="laMTZQYiR48xp2a-LF_z-230" style="edgeStyle=orthogonalEdgeStyle;rounded=0;orthogonalLoop=1;jettySize=auto;html=1;entryX=-0.035;entryY=0.494;entryDx=0;entryDy=0;entryPerimeter=0;enumerate=0;comic=0;endArrow=none;endFill=0;" edge="1" parent="1" source="laMTZQYiR48xp2a-LF_z-207" target="laMTZQYiR48xp2a-LF_z-229">
          <mxGeometry relative="1" as="geometry" />
        </mxCell>
        <mxCell id="laMTZQYiR48xp2a-LF_z-207" value="songs" style="whiteSpace=wrap;html=1;rounded=1;arcSize=10;enumerate=0;comic=0;" vertex="1" parent="1">
          <mxGeometry x="1810" y="1230" width="120" height="60" as="geometry" />
        </mxCell>
        <mxCell id="laMTZQYiR48xp2a-LF_z-214" value="id" style="ellipse;whiteSpace=wrap;html=1;rounded=1;arcSize=10;fontStyle=4;enumerate=0;comic=0;" vertex="1" parent="1">
          <mxGeometry x="1380" y="1270" width="30" height="30" as="geometry" />
        </mxCell>
        <mxCell id="laMTZQYiR48xp2a-LF_z-217" value="game_date" style="ellipse;whiteSpace=wrap;html=1;rounded=1;arcSize=10;fontStyle=0;enumerate=0;comic=0;" vertex="1" parent="1">
          <mxGeometry x="1340" y="1220" width="70" height="30" as="geometry" />
        </mxCell>
        <mxCell id="laMTZQYiR48xp2a-LF_z-221" style="edgeStyle=orthogonalEdgeStyle;rounded=0;orthogonalLoop=1;jettySize=auto;html=1;entryX=0.5;entryY=0;entryDx=0;entryDy=0;enumerate=0;comic=0;endArrow=none;endFill=0;" edge="1" parent="1" source="laMTZQYiR48xp2a-LF_z-219" target="laMTZQYiR48xp2a-LF_z-207">
          <mxGeometry relative="1" as="geometry" />
        </mxCell>
        <mxCell id="laMTZQYiR48xp2a-LF_z-225" value="0..n" style="edgeLabel;html=1;align=center;verticalAlign=middle;resizable=0;points=[];enumerate=0;comic=0;" vertex="1" connectable="0" parent="laMTZQYiR48xp2a-LF_z-221">
          <mxGeometry x="0.8892" relative="1" as="geometry">
            <mxPoint y="-11" as="offset" />
          </mxGeometry>
        </mxCell>
        <mxCell id="laMTZQYiR48xp2a-LF_z-219" value="plays_in" style="rhombus;whiteSpace=wrap;html=1;rounded=1;arcSize=10;enumerate=0;comic=0;" vertex="1" parent="1">
          <mxGeometry x="1830" y="799" width="80" height="80" as="geometry" />
        </mxCell>
        <mxCell id="laMTZQYiR48xp2a-LF_z-227" value="id" style="ellipse;whiteSpace=wrap;html=1;rounded=1;arcSize=10;fontStyle=4;enumerate=0;comic=0;" vertex="1" parent="1">
          <mxGeometry x="1990" y="1270" width="30" height="30" as="geometry" />
        </mxCell>
        <mxCell id="laMTZQYiR48xp2a-LF_z-229" value="musixmatch_id" style="ellipse;whiteSpace=wrap;html=1;rounded=1;arcSize=10;fontStyle=0;enumerate=0;comic=0;" vertex="1" parent="1">
          <mxGeometry x="1990" y="1220" width="90" height="30" as="geometry" />
        </mxCell>
        <mxCell id="laMTZQYiR48xp2a-LF_z-234" value="" style="edgeStyle=orthogonalEdgeStyle;rounded=0;orthogonalLoop=1;jettySize=auto;html=1;enumerate=0;comic=0;endArrow=none;endFill=0;" edge="1" parent="1" source="laMTZQYiR48xp2a-LF_z-231" target="laMTZQYiR48xp2a-LF_z-233">
          <mxGeometry relative="1" as="geometry" />
        </mxCell>
        <mxCell id="laMTZQYiR48xp2a-LF_z-261" value="1" style="edgeLabel;html=1;align=center;verticalAlign=middle;resizable=0;points=[];enumerate=0;comic=0;" vertex="1" connectable="0" parent="laMTZQYiR48xp2a-LF_z-234">
          <mxGeometry x="0.0933" y="1" relative="1" as="geometry">
            <mxPoint as="offset" />
          </mxGeometry>
        </mxCell>
        <mxCell id="laMTZQYiR48xp2a-LF_z-231" value="has" style="rhombus;whiteSpace=wrap;html=1;rounded=1;arcSize=10;enumerate=0;comic=0;" vertex="1" parent="1">
          <mxGeometry x="1400" y="780" width="80" height="80" as="geometry" />
        </mxCell>
        <mxCell id="laMTZQYiR48xp2a-LF_z-238" style="edgeStyle=orthogonalEdgeStyle;rounded=0;orthogonalLoop=1;jettySize=auto;html=1;entryX=1;entryY=0.5;entryDx=0;entryDy=0;enumerate=0;comic=0;endArrow=none;endFill=0;" edge="1" parent="1" source="laMTZQYiR48xp2a-LF_z-233" target="laMTZQYiR48xp2a-LF_z-236">
          <mxGeometry relative="1" as="geometry" />
        </mxCell>
        <mxCell id="laMTZQYiR48xp2a-LF_z-233" value="profile_picture" style="whiteSpace=wrap;html=1;rounded=1;arcSize=10;fontStyle=4;enumerate=0;comic=0;" vertex="1" parent="1">
          <mxGeometry x="1250" y="790" width="120" height="60" as="geometry" />
        </mxCell>
        <mxCell id="laMTZQYiR48xp2a-LF_z-235" value="id" style="ellipse;whiteSpace=wrap;html=1;rounded=1;arcSize=10;fontStyle=4;enumerate=0;comic=0;" vertex="1" parent="1">
          <mxGeometry x="1120" y="769" width="80" height="40" as="geometry" />
        </mxCell>
        <mxCell id="laMTZQYiR48xp2a-LF_z-236" value="image_url" style="ellipse;whiteSpace=wrap;html=1;rounded=1;arcSize=10;enumerate=0;comic=0;" vertex="1" parent="1">
          <mxGeometry x="1120" y="829" width="80" height="40" as="geometry" />
        </mxCell>
        <mxCell id="laMTZQYiR48xp2a-LF_z-237" style="edgeStyle=orthogonalEdgeStyle;rounded=0;orthogonalLoop=1;jettySize=auto;html=1;entryX=1.04;entryY=0.5;entryDx=0;entryDy=0;entryPerimeter=0;enumerate=0;comic=0;endArrow=none;endFill=0;" edge="1" parent="1" source="laMTZQYiR48xp2a-LF_z-233" target="laMTZQYiR48xp2a-LF_z-235">
          <mxGeometry relative="1" as="geometry" />
        </mxCell>
        <mxCell id="laMTZQYiR48xp2a-LF_z-240" value="id" style="ellipse;whiteSpace=wrap;html=1;rounded=1;arcSize=10;fontStyle=4;enumerate=0;comic=0;" vertex="1" parent="1">
          <mxGeometry x="1630" y="1080" width="40" height="30" as="geometry" />
        </mxCell>
        <mxCell id="laMTZQYiR48xp2a-LF_z-241" value="exposed_id" style="ellipse;whiteSpace=wrap;html=1;rounded=1;arcSize=10;fontStyle=0;enumerate=0;comic=0;" vertex="1" parent="1">
          <mxGeometry x="1630" y="1050" width="100" height="30" as="geometry" />
        </mxCell>
        <mxCell id="laMTZQYiR48xp2a-LF_z-247" value="password_hash" style="ellipse;whiteSpace=wrap;html=1;rounded=1;arcSize=10;fontStyle=0;enumerate=0;comic=0;" vertex="1" parent="1">
          <mxGeometry x="1630" y="1110" width="100" height="30" as="geometry" />
        </mxCell>
        <mxCell id="laMTZQYiR48xp2a-LF_z-248" value="spotify_id" style="ellipse;whiteSpace=wrap;html=1;rounded=1;arcSize=10;fontStyle=0;enumerate=0;comic=0;" vertex="1" parent="1">
          <mxGeometry x="1630" y="1140" width="100" height="30" as="geometry" />
        </mxCell>
        <mxCell id="laMTZQYiR48xp2a-LF_z-249" value="spotify_id" style="ellipse;whiteSpace=wrap;html=1;rounded=1;arcSize=10;fontStyle=0;enumerate=0;comic=0;" vertex="1" parent="1">
          <mxGeometry x="1630" y="1170" width="100" height="30" as="geometry" />
        </mxCell>
        <mxCell id="laMTZQYiR48xp2a-LF_z-250" value="name" style="ellipse;whiteSpace=wrap;html=1;rounded=1;arcSize=10;fontStyle=0;enumerate=0;comic=0;" vertex="1" parent="1">
          <mxGeometry x="1630" y="1020" width="100" height="30" as="geometry" />
        </mxCell>
        <mxCell id="laMTZQYiR48xp2a-LF_z-265" style="edgeStyle=orthogonalEdgeStyle;rounded=0;orthogonalLoop=1;jettySize=auto;html=1;entryX=0.5;entryY=1;entryDx=0;entryDy=0;enumerate=0;comic=0;endArrow=none;endFill=0;" edge="1" parent="1" source="laMTZQYiR48xp2a-LF_z-263" target="laMTZQYiR48xp2a-LF_z-207">
          <mxGeometry relative="1" as="geometry" />
        </mxCell>
        <mxCell id="laMTZQYiR48xp2a-LF_z-267" value="0..n" style="edgeLabel;html=1;align=center;verticalAlign=middle;resizable=0;points=[];enumerate=0;comic=0;" vertex="1" connectable="0" parent="laMTZQYiR48xp2a-LF_z-265">
          <mxGeometry x="0.7961" y="1" relative="1" as="geometry">
            <mxPoint as="offset" />
          </mxGeometry>
        </mxCell>
        <mxCell id="laMTZQYiR48xp2a-LF_z-270" style="edgeStyle=orthogonalEdgeStyle;rounded=0;orthogonalLoop=1;jettySize=auto;html=1;entryX=0.5;entryY=0;entryDx=0;entryDy=0;enumerate=0;comic=0;endArrow=none;endFill=0;" edge="1" parent="1" source="laMTZQYiR48xp2a-LF_z-263" target="laMTZQYiR48xp2a-LF_z-269">
          <mxGeometry relative="1" as="geometry" />
        </mxCell>
        <mxCell id="laMTZQYiR48xp2a-LF_z-263" value="attempts" style="rhombus;whiteSpace=wrap;html=1;rounded=1;arcSize=10;enumerate=0;comic=0;" vertex="1" parent="1">
          <mxGeometry x="1670" y="1350" width="80" height="80" as="geometry" />
        </mxCell>
        <mxCell id="laMTZQYiR48xp2a-LF_z-269" value="guessed_at" style="ellipse;whiteSpace=wrap;html=1;rounded=1;arcSize=10;fontStyle=0;enumerate=0;comic=0;" vertex="1" parent="1">
          <mxGeometry x="1675" y="1460" width="70" height="30" as="geometry" />
        </mxCell>
        <mxCell id="laMTZQYiR48xp2a-LF_z-275" value="" style="edgeStyle=orthogonalEdgeStyle;rounded=0;orthogonalLoop=1;jettySize=auto;html=1;enumerate=0;comic=0;endArrow=none;endFill=0;" edge="1" parent="1" source="laMTZQYiR48xp2a-LF_z-272" target="laMTZQYiR48xp2a-LF_z-274">
          <mxGeometry relative="1" as="geometry" />
        </mxCell>
        <mxCell id="laMTZQYiR48xp2a-LF_z-305" value="0..n" style="edgeLabel;html=1;align=center;verticalAlign=middle;resizable=0;points=[];enumerate=0;comic=0;" vertex="1" connectable="0" parent="laMTZQYiR48xp2a-LF_z-275">
          <mxGeometry x="0.5439" y="1" relative="1" as="geometry">
            <mxPoint as="offset" />
          </mxGeometry>
        </mxCell>
        <mxCell id="laMTZQYiR48xp2a-LF_z-272" value="stores" style="rhombus;whiteSpace=wrap;html=1;rounded=1;arcSize=10;enumerate=0;comic=0;" vertex="1" parent="1">
          <mxGeometry x="1500" y="780" width="80" height="80" as="geometry" />
        </mxCell>
        <mxCell id="laMTZQYiR48xp2a-LF_z-277" value="" style="edgeStyle=orthogonalEdgeStyle;rounded=0;orthogonalLoop=1;jettySize=auto;html=1;enumerate=0;comic=0;endArrow=none;endFill=0;" edge="1" parent="1" source="laMTZQYiR48xp2a-LF_z-274" target="laMTZQYiR48xp2a-LF_z-276">
          <mxGeometry relative="1" as="geometry" />
        </mxCell>
        <mxCell id="laMTZQYiR48xp2a-LF_z-280" style="edgeStyle=orthogonalEdgeStyle;rounded=0;orthogonalLoop=1;jettySize=auto;html=1;entryX=1;entryY=0.5;entryDx=0;entryDy=0;enumerate=0;comic=0;endArrow=none;endFill=0;" edge="1" parent="1" source="laMTZQYiR48xp2a-LF_z-274" target="laMTZQYiR48xp2a-LF_z-279">
          <mxGeometry relative="1" as="geometry" />
        </mxCell>
        <mxCell id="laMTZQYiR48xp2a-LF_z-286" value="0..n" style="edgeLabel;html=1;align=center;verticalAlign=middle;resizable=0;points=[];enumerate=0;comic=0;" vertex="1" connectable="0" parent="laMTZQYiR48xp2a-LF_z-280">
          <mxGeometry x="-0.6179" relative="1" as="geometry">
            <mxPoint as="offset" />
          </mxGeometry>
        </mxCell>
        <mxCell id="laMTZQYiR48xp2a-LF_z-292" value="" style="edgeStyle=orthogonalEdgeStyle;rounded=0;orthogonalLoop=1;jettySize=auto;html=1;enumerate=0;comic=0;endArrow=none;endFill=0;" edge="1" parent="1" source="laMTZQYiR48xp2a-LF_z-274" target="laMTZQYiR48xp2a-LF_z-291">
          <mxGeometry relative="1" as="geometry" />
        </mxCell>
        <mxCell id="laMTZQYiR48xp2a-LF_z-296" value="0..n" style="edgeLabel;html=1;align=center;verticalAlign=middle;resizable=0;points=[];enumerate=0;comic=0;" vertex="1" connectable="0" parent="laMTZQYiR48xp2a-LF_z-292">
          <mxGeometry x="-0.7398" relative="1" as="geometry">
            <mxPoint as="offset" />
          </mxGeometry>
        </mxCell>
        <mxCell id="laMTZQYiR48xp2a-LF_z-274" value="game_config" style="whiteSpace=wrap;html=1;rounded=1;arcSize=10;enumerate=0;comic=0;" vertex="1" parent="1">
          <mxGeometry x="1480" y="630" width="120" height="60" as="geometry" />
        </mxCell>
        <mxCell id="laMTZQYiR48xp2a-LF_z-276" value="id" style="ellipse;whiteSpace=wrap;html=1;rounded=1;arcSize=10;fontStyle=4;enumerate=0;comic=0;" vertex="1" parent="1">
          <mxGeometry x="1420" y="700" width="40" height="40" as="geometry" />
        </mxCell>
        <mxCell id="laMTZQYiR48xp2a-LF_z-282" value="" style="edgeStyle=orthogonalEdgeStyle;rounded=0;orthogonalLoop=1;jettySize=auto;html=1;enumerate=0;comic=0;" edge="1" parent="1" source="laMTZQYiR48xp2a-LF_z-279" target="laMTZQYiR48xp2a-LF_z-281">
          <mxGeometry relative="1" as="geometry" />
        </mxCell>
        <mxCell id="laMTZQYiR48xp2a-LF_z-284" value="1" style="edgeLabel;html=1;align=center;verticalAlign=middle;resizable=0;points=[];enumerate=0;comic=0;" vertex="1" connectable="0" parent="laMTZQYiR48xp2a-LF_z-282">
          <mxGeometry x="0.1571" relative="1" as="geometry">
            <mxPoint as="offset" />
          </mxGeometry>
        </mxCell>
        <mxCell id="laMTZQYiR48xp2a-LF_z-321" value="" style="edgeStyle=orthogonalEdgeStyle;rounded=0;orthogonalLoop=1;jettySize=auto;html=1;enumerate=0;comic=0;endArrow=none;endFill=0;" edge="1" parent="1" source="laMTZQYiR48xp2a-LF_z-279">
          <mxGeometry relative="1" as="geometry">
            <mxPoint x="1240" y="660" as="targetPoint" />
          </mxGeometry>
        </mxCell>
        <mxCell id="laMTZQYiR48xp2a-LF_z-279" value="stores" style="rhombus;whiteSpace=wrap;html=1;rounded=1;arcSize=10;enumerate=0;comic=0;" vertex="1" parent="1">
          <mxGeometry x="1320" y="620" width="80" height="80" as="geometry" />
        </mxCell>
        <mxCell id="laMTZQYiR48xp2a-LF_z-289" style="edgeStyle=orthogonalEdgeStyle;rounded=0;orthogonalLoop=1;jettySize=auto;html=1;entryX=1;entryY=0.5;entryDx=0;entryDy=0;enumerate=0;comic=0;endArrow=none;endFill=0;" edge="1" parent="1" source="laMTZQYiR48xp2a-LF_z-281" target="laMTZQYiR48xp2a-LF_z-287">
          <mxGeometry relative="1" as="geometry" />
        </mxCell>
        <mxCell id="laMTZQYiR48xp2a-LF_z-290" style="edgeStyle=orthogonalEdgeStyle;rounded=0;orthogonalLoop=1;jettySize=auto;html=1;entryX=1;entryY=0.5;entryDx=0;entryDy=0;enumerate=0;comic=0;endArrow=none;endFill=0;" edge="1" parent="1" source="laMTZQYiR48xp2a-LF_z-281" target="laMTZQYiR48xp2a-LF_z-288">
          <mxGeometry relative="1" as="geometry" />
        </mxCell>
        <mxCell id="laMTZQYiR48xp2a-LF_z-281" value="game_modes" style="whiteSpace=wrap;html=1;rounded=1;arcSize=10;enumerate=0;comic=0;" vertex="1" parent="1">
          <mxGeometry x="1140" y="630" width="120" height="60" as="geometry" />
        </mxCell>
        <mxCell id="laMTZQYiR48xp2a-LF_z-287" value="id" style="ellipse;whiteSpace=wrap;html=1;rounded=1;arcSize=10;fontStyle=4;enumerate=0;comic=0;" vertex="1" parent="1">
          <mxGeometry x="1050" y="620" width="40" height="40" as="geometry" />
        </mxCell>
        <mxCell id="laMTZQYiR48xp2a-LF_z-288" value="name" style="ellipse;whiteSpace=wrap;html=1;rounded=1;arcSize=10;fontStyle=0;enumerate=0;comic=0;" vertex="1" parent="1">
          <mxGeometry x="1050" y="660" width="40" height="40" as="geometry" />
        </mxCell>
        <mxCell id="laMTZQYiR48xp2a-LF_z-293" style="edgeStyle=orthogonalEdgeStyle;rounded=0;orthogonalLoop=1;jettySize=auto;html=1;entryX=0;entryY=0.5;entryDx=0;entryDy=0;enumerate=0;comic=0;endArrow=none;endFill=0;" edge="1" parent="1" source="laMTZQYiR48xp2a-LF_z-291" target="laMTZQYiR48xp2a-LF_z-166">
          <mxGeometry relative="1" as="geometry" />
        </mxCell>
        <mxCell id="laMTZQYiR48xp2a-LF_z-297" value="0..n" style="edgeLabel;html=1;align=center;verticalAlign=middle;resizable=0;points=[];enumerate=0;comic=0;" vertex="1" connectable="0" parent="laMTZQYiR48xp2a-LF_z-293">
          <mxGeometry x="0.4743" relative="1" as="geometry">
            <mxPoint x="-7" as="offset" />
          </mxGeometry>
        </mxCell>
        <mxCell id="laMTZQYiR48xp2a-LF_z-291" value="stores" style="rhombus;whiteSpace=wrap;html=1;rounded=1;arcSize=10;enumerate=0;comic=0;" vertex="1" parent="1">
          <mxGeometry x="1500" y="468" width="80" height="80" as="geometry" />
        </mxCell>
        <mxCell id="laMTZQYiR48xp2a-LF_z-307" value="" style="edgeStyle=orthogonalEdgeStyle;rounded=0;orthogonalLoop=1;jettySize=auto;html=1;enumerate=0;comic=0;endArrow=none;endFill=0;" edge="1" parent="1" source="laMTZQYiR48xp2a-LF_z-299" target="laMTZQYiR48xp2a-LF_z-306">
          <mxGeometry relative="1" as="geometry" />
        </mxCell>
        <mxCell id="laMTZQYiR48xp2a-LF_z-310" value="1" style="edgeLabel;html=1;align=center;verticalAlign=middle;resizable=0;points=[];enumerate=0;comic=0;" vertex="1" connectable="0" parent="laMTZQYiR48xp2a-LF_z-307">
          <mxGeometry x="0.4286" y="2" relative="1" as="geometry">
            <mxPoint x="3" y="-2" as="offset" />
          </mxGeometry>
        </mxCell>
        <mxCell id="laMTZQYiR48xp2a-LF_z-299" value="achieves" style="rhombus;whiteSpace=wrap;html=1;rounded=1;arcSize=10;enumerate=0;comic=0;" vertex="1" parent="1">
          <mxGeometry x="1330" y="1060" width="80" height="80" as="geometry" />
        </mxCell>
        <mxCell id="laMTZQYiR48xp2a-LF_z-315" style="edgeStyle=orthogonalEdgeStyle;rounded=0;orthogonalLoop=1;jettySize=auto;html=1;entryX=1;entryY=0.5;entryDx=0;entryDy=0;enumerate=0;comic=0;endArrow=none;endFill=0;" edge="1" parent="1" source="laMTZQYiR48xp2a-LF_z-306" target="laMTZQYiR48xp2a-LF_z-311">
          <mxGeometry relative="1" as="geometry" />
        </mxCell>
        <mxCell id="laMTZQYiR48xp2a-LF_z-317" style="edgeStyle=orthogonalEdgeStyle;rounded=0;orthogonalLoop=1;jettySize=auto;html=1;entryX=1;entryY=0.5;entryDx=0;entryDy=0;enumerate=0;comic=0;endArrow=none;endFill=0;" edge="1" parent="1" source="laMTZQYiR48xp2a-LF_z-306" target="laMTZQYiR48xp2a-LF_z-312">
          <mxGeometry relative="1" as="geometry" />
        </mxCell>
        <mxCell id="laMTZQYiR48xp2a-LF_z-318" style="edgeStyle=orthogonalEdgeStyle;rounded=0;orthogonalLoop=1;jettySize=auto;html=1;entryX=1;entryY=0.5;entryDx=0;entryDy=0;enumerate=0;comic=0;endArrow=none;endFill=0;" edge="1" parent="1" source="laMTZQYiR48xp2a-LF_z-306" target="laMTZQYiR48xp2a-LF_z-313">
          <mxGeometry relative="1" as="geometry" />
        </mxCell>
        <mxCell id="laMTZQYiR48xp2a-LF_z-319" style="edgeStyle=orthogonalEdgeStyle;rounded=0;orthogonalLoop=1;jettySize=auto;html=1;entryX=1;entryY=0.5;entryDx=0;entryDy=0;enumerate=0;comic=0;endArrow=none;endFill=0;" edge="1" parent="1" source="laMTZQYiR48xp2a-LF_z-306" target="laMTZQYiR48xp2a-LF_z-314">
          <mxGeometry relative="1" as="geometry" />
        </mxCell>
        <mxCell id="laMTZQYiR48xp2a-LF_z-306" value="streaks" style="whiteSpace=wrap;html=1;rounded=1;arcSize=10;enumerate=0;comic=0;" vertex="1" parent="1">
          <mxGeometry x="1150" y="1070" width="120" height="60" as="geometry" />
        </mxCell>
        <mxCell id="laMTZQYiR48xp2a-LF_z-311" value="streak_count" style="ellipse;whiteSpace=wrap;html=1;rounded=1;arcSize=10;enumerate=0;comic=0;" vertex="1" parent="1">
          <mxGeometry x="1010" y="1005" width="80" height="40" as="geometry" />
        </mxCell>
        <mxCell id="laMTZQYiR48xp2a-LF_z-312" value="last_updated" style="ellipse;whiteSpace=wrap;html=1;rounded=1;arcSize=10;enumerate=0;comic=0;" vertex="1" parent="1">
          <mxGeometry x="1010" y="1055" width="80" height="40" as="geometry" />
        </mxCell>
        <mxCell id="laMTZQYiR48xp2a-LF_z-313" value="max_streak" style="ellipse;whiteSpace=wrap;html=1;rounded=1;arcSize=10;enumerate=0;comic=0;" vertex="1" parent="1">
          <mxGeometry x="1010" y="1105" width="80" height="40" as="geometry" />
        </mxCell>
        <mxCell id="laMTZQYiR48xp2a-LF_z-314" value="id" style="ellipse;whiteSpace=wrap;html=1;rounded=1;arcSize=10;fontStyle=4;enumerate=0;comic=0;" vertex="1" parent="1">
          <mxGeometry x="1010" y="1155" width="80" height="40" as="geometry" />
        </mxCell>
      </root>
    </mxGraphModel>
  </diagram>
</mxfile>
